/* XPM */
static char * audio_xpm[] = {
/* width height num_colors chars_per_pixel */
"19 22 9 1",
/* colors */
" 	c #00000000BABA",
".	c gray80",
"X	c #0098FE",
"o	c #0066FE",
"O	c #0000EF",
"+	c #000089",
"@	c #000077",
"#	c #000055",
"$	c #000044",
/* pixels */
"                   ",
" ................. ",
" ................. ",
" ................. ",
" ............. ... ",
" .......X... .. .. ",
" ......Xo.... .. . ",
" .....Xoo.. .. . . ",
" .oooXoOO... . . . ",
" .oOOoOOO. . . . . ",
" .OO OOOO. . . . . ",
" . +@@ OO. . . . . ",
" .+@#@+ O. . . . . ",
" .@##$@+ ... . . . ",
" .....$@@.. .. . . ",
" ......##.... .. . ",
" .......$... .. .. ",
" ............. ... ",
" ................. ",
" ................. ",
" ................. ",
"                   "};
