/* XPM */
static char *mozicon16[] = {
/* width height num_colors chars_per_pixel */
"    16    16       27            1",
/* colors */
". c #ffffff",
"# c #ccccff",
"a c #cccccc",
"b c #99cccc",
"c c #9999cc",
"d c #999999",
"e c #996666",
"f c #66ffff",
"g c #66ccff",
"h c #669999",
"i c #669966",
"j c #666699",
"k c #666666",
"l c #33ccff",
"m c #33cccc",
"n c #3399cc",
"o c #339999",
"p c #336666",
"q c #333333",
"r c #00cccc",
"s c #0099cc",
"t c #009999",
"u c #006699",
"v c #006666",
"w c #003366",
"x c #003333",
"y c #000000",
/* pixels */
"yyyyyyyyyyyyyyyy",
"y.............hy",
"y.wxwvwvwvwvxwky",
"y.vvvvvvvvvvwviy",
"y.uv..ouu..#uuky",
"y.tut..ntu.vtuiy",
"y.tts...nt.sttjy",
"y.ssr.s..l.mssky",
"y.sfg.rr...gfgiy",
"y.mbd.kkpkbhcmjy",
"y.gyq.qyyyyyy#iy",
"y.yy..ayyyyyyyky",
"y.yyyyyyyyyyyyhy",
"y.yyyyyyyyyyyyky",
"yhhkhkhkhkhkhehy",
"yyyyyyyyyyyyyyyy"
};
